<?xml version="1.0" encoding="UTF-8"?>
<svg xmlns="http://www.w3.org/2000/svg" xmlns:xlink="http://www.w3.org/1999/xlink" width="100%" height="100%" viewBox="0 0 87 47" version="1.1" xml:space="preserve" overflow="hidden">
<g id="surface1">
<path style=" stroke:none;fill-rule:nonzero;fill:rgb(21.960784%,21.960784%,21.960784%);fill-opacity:1;" d="M 71.410156 23.011719 C 71.382812 22.941406 71.347656 22.875 71.308594 22.804688 C 71.28125 22.734375 71.246094 22.664062 71.207031 22.597656 C 71.175781 22.523438 71.140625 22.457031 71.101562 22.390625 C 71.074219 22.320312 71.039062 22.25 71 22.183594 C 70.972656 22.113281 70.9375 22.042969 70.898438 21.976562 C 70.867188 21.90625 70.832031 21.835938 70.796875 21.765625 C 70.765625 21.695312 70.730469 21.628906 70.691406 21.558594 C 70.660156 21.488281 70.625 21.417969 70.589844 21.351562 C 70.558594 21.28125 70.523438 21.214844 70.488281 21.144531 C 70.457031 21.074219 70.421875 21.003906 70.382812 20.9375 C 70.351562 20.867188 70.316406 20.796875 70.28125 20.730469 C 70.25 20.660156 70.214844 20.589844 70.175781 20.523438 C 70.148438 20.453125 70.113281 20.382812 70.074219 20.316406 C 70.046875 20.242188 70.011719 20.175781 69.972656 20.105469 C 69.941406 20.035156 69.90625 19.96875 69.867188 19.898438 C 69.839844 19.828125 69.804688 19.757812 69.765625 19.691406 C 69.734375 19.621094 69.699219 19.550781 69.664062 19.484375 C 69.632812 19.414062 69.597656 19.34375 69.5625 19.277344 C 69.53125 19.207031 69.496094 19.136719 69.457031 19.066406 C 69.425781 18.996094 69.390625 18.929688 69.355469 18.863281 C 69.324219 18.789062 69.289062 18.722656 69.25 18.652344 C 69.222656 18.582031 69.1875 18.515625 69.148438 18.449219 C 69.117188 18.375 69.085938 18.308594 69.046875 18.238281 C 69.015625 18.167969 68.980469 18.097656 68.941406 18.03125 C 68.914062 17.960938 68.878906 17.890625 68.839844 17.824219 C 68.8125 17.753906 68.777344 17.683594 68.738281 17.617188 C 68.707031 17.546875 68.671875 17.476562 68.632812 17.40625 C 68.605469 17.335938 68.570312 17.265625 68.53125 17.203125 C 68.5 17.128906 68.464844 17.0625 68.429688 16.992188 C 68.398438 16.921875 68.363281 16.855469 68.328125 16.789062 C 68.296875 16.714844 68.261719 16.644531 68.222656 16.578125 C 68.191406 16.503906 68.15625 16.4375 68.121094 16.371094 C 68.089844 16.300781 68.054688 16.230469 68.015625 16.164062 C 67.984375 16.089844 67.953125 16.023438 67.914062 15.957031 C 67.882812 15.886719 67.851562 15.816406 67.8125 15.75 C 67.78125 15.675781 67.746094 15.609375 67.707031 15.539062 C 67.679688 15.46875 67.644531 15.398438 67.605469 15.332031 C 67.574219 15.261719 67.539062 15.191406 67.5 15.125 C 67.472656 15.054688 67.4375 14.984375 67.398438 14.917969 C 67.371094 14.847656 67.335938 14.777344 67.296875 14.710938 C 67.265625 14.636719 67.230469 14.570312 67.195312 14.503906 C 67.164062 14.429688 67.128906 14.363281 67.089844 14.292969 C 67.058594 14.222656 67.027344 14.15625 66.988281 14.089844 C 66.957031 14.015625 66.921875 13.949219 66.886719 13.878906 C 66.855469 13.808594 66.820312 13.738281 66.78125 13.671875 C 66.753906 13.601562 66.71875 13.53125 66.679688 13.464844 C 66.648438 13.394531 66.617188 13.324219 66.578125 13.257812 C 66.546875 13.1875 66.511719 13.117188 66.472656 13.050781 C 66.445312 12.976562 66.410156 12.910156 66.371094 12.84375 C 66.273438 12.605469 66.125 12.390625 65.9375 12.210938 C 65.625 11.910156 65.222656 11.734375 64.796875 11.703125 C 64.777344 11.664062 64.761719 11.628906 64.738281 11.589844 C 64.707031 11.519531 64.671875 11.449219 64.632812 11.382812 C 64.605469 11.3125 64.570312 11.242188 64.53125 11.175781 C 64.5 11.105469 64.464844 11.035156 64.429688 10.96875 C 64.398438 10.898438 64.363281 10.828125 64.324219 10.761719 C 64.292969 10.6875 64.257812 10.621094 64.222656 10.554688 C 64.191406 10.484375 64.15625 10.414062 64.117188 10.347656 C 64.089844 10.273438 64.054688 10.207031 64.015625 10.140625 C 63.984375 10.070312 63.949219 10 63.910156 9.933594 C 63.882812 9.859375 63.847656 9.792969 63.808594 9.726562 C 63.78125 9.65625 63.746094 9.585938 63.707031 9.519531 C 63.675781 9.445312 63.640625 9.378906 63.601562 9.3125 C 63.574219 9.238281 63.539062 9.171875 63.5 9.105469 C 63.46875 9.03125 63.433594 8.964844 63.398438 8.898438 C 63.367188 8.824219 63.332031 8.757812 63.292969 8.691406 C 63.261719 8.617188 63.230469 8.550781 63.191406 8.484375 C 63.160156 8.410156 63.125 8.34375 63.085938 8.277344 C 63.058594 8.203125 63.023438 8.132812 62.984375 8.070312 C 62.957031 7.996094 62.921875 7.929688 62.882812 7.859375 C 62.851562 7.789062 62.816406 7.71875 62.777344 7.652344 C 62.5 6.984375 61.847656 6.511719 61.082031 6.507812 L 61.066406 6.507812 C 61.054688 6.507812 61.042969 6.507812 61.03125 6.507812 C 60.980469 6.507812 60.933594 6.511719 60.886719 6.515625 L 58.761719 6.703125 C 58.730469 6.632812 58.699219 6.566406 58.660156 6.5 C 58.628906 6.429688 58.597656 6.359375 58.558594 6.292969 C 58.527344 6.222656 58.496094 6.152344 58.457031 6.085938 C 58.425781 6.015625 58.390625 5.945312 58.351562 5.878906 C 58.320312 5.808594 58.289062 5.738281 58.25 5.671875 C 58.21875 5.601562 58.1875 5.53125 58.148438 5.464844 C 58.117188 5.394531 58.082031 5.324219 58.046875 5.257812 C 58.011719 5.1875 57.980469 5.117188 57.941406 5.050781 C 57.910156 4.980469 57.875 4.910156 57.839844 4.84375 C 57.808594 4.773438 57.773438 4.703125 57.734375 4.632812 C 57.703125 4.5625 57.671875 4.496094 57.632812 4.429688 C 57.601562 4.359375 57.570312 4.289062 57.53125 4.21875 C 57.5 4.148438 57.464844 4.078125 57.425781 4.011719 C 57.394531 3.941406 57.363281 3.871094 57.324219 3.804688 C 57.292969 3.734375 57.261719 3.664062 57.222656 3.597656 C 57.191406 3.527344 57.15625 3.457031 57.117188 3.386719 C 57.085938 3.316406 57.054688 3.25 57.015625 3.183594 C 56.984375 3.113281 56.949219 3.042969 56.914062 2.972656 C 56.878906 2.902344 56.847656 2.835938 56.8125 2.769531 C 56.777344 2.699219 56.746094 2.628906 56.707031 2.558594 C 56.675781 2.488281 56.640625 2.417969 56.605469 2.351562 C 56.574219 2.28125 56.539062 2.210938 56.5 2.144531 C 56.46875 2.074219 56.4375 2.003906 56.398438 1.9375 C 56.367188 1.867188 56.335938 1.796875 56.296875 1.730469 C 56.265625 1.660156 56.230469 1.589844 56.191406 1.523438 C 56.125 1.375 56.046875 1.230469 55.949219 1.097656 C 55.546875 0.535156 54.914062 0.171875 54.222656 0.101562 C 54.136719 0.0898438 54.054688 0.0859375 53.96875 0.0859375 C 52.761719 0.0859375 51.695312 0.953125 51.429688 2.148438 L 51.320312 2.652344 C 51.296875 2.601562 51.269531 2.550781 51.242188 2.503906 C 51.210938 2.433594 51.175781 2.363281 51.136719 2.296875 C 51.105469 2.226562 51.074219 2.15625 51.035156 2.089844 C 51.003906 2.019531 50.96875 1.949219 50.933594 1.882812 C 50.902344 1.808594 50.867188 1.742188 50.828125 1.671875 C 50.796875 1.601562 50.765625 1.53125 50.726562 1.464844 C 50.613281 1.207031 50.457031 0.964844 50.257812 0.757812 C 49.796875 0.277344 49.171875 0.0117188 48.496094 0.0117188 C 48.425781 0.0117188 48.351562 0.015625 48.277344 0.0195312 C 46.96875 0.136719 45.941406 1.214844 45.898438 2.535156 L 45.859375 3.675781 C 45.832031 3.621094 45.804688 3.570312 45.78125 3.519531 C 45.746094 3.449219 45.714844 3.378906 45.675781 3.3125 C 45.644531 3.242188 45.609375 3.171875 45.574219 3.105469 C 45.542969 3.035156 45.507812 2.964844 45.472656 2.898438 C 45.441406 2.828125 45.40625 2.757812 45.367188 2.691406 C 45.335938 2.621094 45.304688 2.546875 45.265625 2.484375 C 44.882812 1.621094 44.027344 1.039062 43.039062 1.039062 C 42.816406 1.039062 42.589844 1.070312 42.371094 1.128906 C 41.101562 1.476562 40.265625 2.753906 40.46875 4.042969 L 40.9375 7.023438 C 40.980469 7.320312 41.082031 7.597656 41.21875 7.847656 C 41.253906 7.921875 41.285156 7.988281 41.324219 8.054688 C 41.355469 8.125 41.390625 8.195312 41.425781 8.261719 C 41.457031 8.335938 41.492188 8.402344 41.527344 8.472656 C 41.535156 8.488281 41.542969 8.503906 41.550781 8.519531 C 41.328125 8.425781 41.085938 8.371094 40.832031 8.371094 L 40.820312 8.371094 C 40.808594 8.371094 40.796875 8.371094 40.785156 8.371094 C 40.734375 8.371094 40.6875 8.375 40.636719 8.378906 L 25.46875 9.699219 C 24.535156 9.78125 23.808594 10.550781 23.777344 11.492188 L 23.714844 13.253906 C 23.6875 13.191406 23.660156 13.132812 23.625 13.074219 C 23.597656 13.003906 23.5625 12.9375 23.523438 12.871094 C 23.492188 12.796875 23.457031 12.730469 23.421875 12.660156 C 23.390625 12.589844 23.355469 12.519531 23.316406 12.453125 C 23.285156 12.382812 23.253906 12.3125 23.214844 12.246094 C 23.183594 12.175781 23.148438 12.105469 23.113281 12.039062 C 23.082031 11.96875 23.046875 11.898438 23.007812 11.828125 C 22.980469 11.757812 22.945312 11.6875 22.90625 11.625 C 22.808594 11.386719 22.660156 11.171875 22.472656 10.988281 C 22.128906 10.660156 21.667969 10.476562 21.199219 10.476562 C 21.144531 10.476562 21.089844 10.476562 21.039062 10.484375 L 17.148438 10.820312 C 16.214844 10.902344 15.488281 11.671875 15.457031 12.617188 L 15.304688 16.898438 C 15.285156 16.867188 15.269531 16.832031 15.25 16.800781 C 15.222656 16.730469 15.1875 16.660156 15.148438 16.59375 C 15.050781 16.367188 14.910156 16.15625 14.722656 15.980469 C 14.378906 15.648438 13.921875 15.46875 13.449219 15.46875 C 13.394531 15.46875 13.34375 15.46875 13.289062 15.472656 L 2.226562 16.4375 C 1.292969 16.519531 0.570312 17.289062 0.535156 18.230469 L 0 33.503906 C -0.0117188 33.855469 0.078125 34.199219 0.246094 34.496094 C 0.277344 34.570312 0.3125 34.636719 0.347656 34.703125 C 0.378906 34.773438 0.414062 34.84375 0.449219 34.910156 C 0.480469 34.984375 0.515625 35.050781 0.554688 35.121094 C 0.585938 35.191406 0.621094 35.261719 0.65625 35.328125 C 0.6875 35.398438 0.722656 35.46875 0.761719 35.535156 C 0.789062 35.605469 0.824219 35.675781 0.863281 35.742188 C 0.894531 35.8125 0.925781 35.882812 0.964844 35.949219 C 0.996094 36.019531 1.03125 36.089844 1.070312 36.15625 C 1.097656 36.230469 1.132812 36.296875 1.171875 36.363281 C 1.199219 36.433594 1.234375 36.503906 1.273438 36.570312 C 1.304688 36.644531 1.339844 36.710938 1.378906 36.78125 C 1.40625 36.851562 1.441406 36.921875 1.480469 36.988281 C 1.511719 37.058594 1.546875 37.128906 1.582031 37.195312 C 1.613281 37.265625 1.648438 37.335938 1.683594 37.402344 C 1.714844 37.472656 1.75 37.542969 1.789062 37.609375 C 1.820312 37.683594 1.855469 37.75 1.890625 37.816406 C 1.921875 37.890625 1.957031 37.957031 1.996094 38.027344 C 2.027344 38.097656 2.058594 38.167969 2.097656 38.234375 C 2.128906 38.304688 2.160156 38.371094 2.199219 38.441406 C 2.230469 38.511719 2.265625 38.582031 2.304688 38.648438 C 2.332031 38.722656 2.367188 38.789062 2.40625 38.855469 C 2.4375 38.925781 2.472656 38.996094 2.511719 39.0625 C 2.539062 39.132812 2.574219 39.203125 2.613281 39.269531 C 2.640625 39.34375 2.675781 39.410156 2.714844 39.480469 C 2.746094 39.550781 2.78125 39.621094 2.816406 39.6875 C 2.847656 39.757812 2.882812 39.828125 2.921875 39.894531 C 2.949219 39.964844 2.984375 40.03125 3.023438 40.101562 C 3.054688 40.171875 3.089844 40.242188 3.125 40.308594 C 3.15625 40.382812 3.191406 40.449219 3.230469 40.515625 C 3.257812 40.589844 3.292969 40.65625 3.332031 40.722656 C 3.363281 40.792969 3.394531 40.863281 3.433594 40.929688 C 3.464844 41.003906 3.5 41.070312 3.539062 41.140625 C 3.566406 41.210938 3.601562 41.28125 3.640625 41.347656 C 3.671875 41.417969 3.707031 41.488281 3.746094 41.554688 C 3.773438 41.625 3.808594 41.695312 3.847656 41.761719 C 3.875 41.832031 3.910156 41.902344 3.949219 41.96875 C 3.980469 42.039062 4.015625 42.109375 4.050781 42.179688 C 4.082031 42.25 4.117188 42.320312 4.15625 42.382812 C 4.1875 42.457031 4.222656 42.523438 4.257812 42.59375 C 4.289062 42.664062 4.324219 42.730469 4.359375 42.796875 C 4.390625 42.871094 4.425781 42.941406 4.464844 43.007812 C 4.492188 43.082031 4.527344 43.148438 4.566406 43.214844 C 4.597656 43.285156 4.632812 43.355469 4.671875 43.421875 C 4.699219 43.492188 4.734375 43.5625 4.773438 43.628906 C 4.800781 43.699219 4.835938 43.769531 4.875 43.835938 C 4.90625 43.910156 4.941406 43.976562 4.980469 44.042969 C 5.007812 44.117188 5.042969 44.183594 5.082031 44.25 C 5.113281 44.320312 5.144531 44.390625 5.183594 44.457031 C 5.214844 44.53125 5.25 44.597656 5.285156 44.664062 C 5.316406 44.738281 5.351562 44.804688 5.390625 44.871094 C 5.488281 45.109375 5.632812 45.324219 5.820312 45.503906 C 6.167969 45.835938 6.625 46.019531 7.097656 46.019531 C 7.152344 46.019531 7.203125 46.015625 7.257812 46.011719 L 20.027344 44.898438 C 20.238281 44.878906 20.4375 44.828125 20.621094 44.742188 C 20.960938 45.042969 21.398438 45.210938 21.847656 45.210938 C 21.898438 45.210938 21.953125 45.207031 22.007812 45.203125 L 25.898438 44.863281 C 26.832031 44.78125 27.558594 44.011719 27.589844 43.070312 L 27.628906 41.933594 C 27.71875 41.945312 27.8125 41.953125 27.90625 41.953125 C 27.957031 41.953125 28.011719 41.953125 28.066406 41.949219 L 47.898438 40.21875 C 48.777344 40.144531 49.472656 39.457031 49.578125 38.589844 C 49.585938 38.609375 49.597656 38.628906 49.609375 38.652344 C 49.640625 38.71875 49.675781 38.789062 49.710938 38.855469 C 49.742188 38.925781 49.777344 38.996094 49.8125 39.066406 C 49.847656 39.132812 49.878906 39.203125 49.914062 39.269531 C 49.949219 39.339844 49.984375 39.410156 50.019531 39.480469 C 50.054688 39.546875 50.085938 39.617188 50.121094 39.6875 C 50.15625 39.757812 50.191406 39.824219 50.226562 39.894531 C 50.257812 39.964844 50.292969 40.035156 50.328125 40.101562 C 50.363281 40.171875 50.394531 40.238281 50.429688 40.304688 C 50.464844 40.375 50.5 40.449219 50.535156 40.515625 C 50.570312 40.585938 50.601562 40.65625 50.640625 40.722656 C 50.671875 40.792969 50.707031 40.863281 50.742188 40.929688 C 50.777344 41 50.808594 41.066406 50.84375 41.136719 C 50.878906 41.207031 50.914062 41.277344 50.949219 41.34375 C 50.980469 41.414062 51.015625 41.484375 51.050781 41.550781 C 51.085938 41.621094 51.117188 41.691406 51.15625 41.757812 C 51.1875 41.828125 51.222656 41.898438 51.257812 41.964844 C 51.289062 42.035156 51.324219 42.105469 51.363281 42.171875 C 51.394531 42.242188 51.429688 42.3125 51.464844 42.378906 C 51.5 42.449219 51.53125 42.519531 51.570312 42.585938 C 51.601562 42.65625 51.636719 42.726562 51.671875 42.792969 C 51.703125 42.863281 51.738281 42.933594 51.773438 43 C 51.808594 43.066406 51.835938 43.132812 51.871094 43.195312 C 52.269531 44.035156 52.832031 44.753906 53.546875 45.328125 C 54.285156 45.941406 55.097656 46.378906 56.019531 46.660156 C 56.03125 46.664062 56.046875 46.667969 56.058594 46.671875 C 56.792969 46.882812 57.550781 46.988281 58.3125 46.988281 C 58.554688 46.988281 58.804688 46.980469 59.054688 46.957031 C 60 46.875 60.980469 46.613281 61.964844 46.183594 C 61.988281 46.171875 62.011719 46.160156 62.03125 46.152344 C 62.878906 45.738281 63.664062 45.210938 64.429688 44.539062 C 64.449219 44.523438 64.46875 44.503906 64.488281 44.488281 C 65.167969 43.835938 65.746094 43.058594 66.199219 42.179688 C 66.210938 42.152344 66.222656 42.128906 66.234375 42.105469 C 66.664062 41.171875 66.898438 40.191406 66.929688 39.199219 C 66.964844 38.21875 66.796875 37.285156 66.417969 36.34375 C 66.402344 36.300781 66.382812 36.261719 66.363281 36.222656 C 66.347656 36.1875 66.324219 36.152344 66.308594 36.117188 C 66.292969 36.085938 66.277344 36.050781 66.261719 36.015625 C 66.242188 35.980469 66.222656 35.945312 66.203125 35.910156 C 66.191406 35.878906 66.175781 35.84375 66.160156 35.808594 C 66.140625 35.773438 66.121094 35.742188 66.101562 35.707031 C 66.089844 35.671875 66.070312 35.636719 66.054688 35.601562 C 66.039062 35.566406 66.015625 35.53125 66 35.496094 C 65.984375 35.460938 65.96875 35.425781 65.953125 35.394531 C 65.933594 35.359375 65.914062 35.324219 65.894531 35.289062 C 65.882812 35.257812 65.867188 35.222656 65.851562 35.1875 C 65.832031 35.152344 65.816406 35.125 65.796875 35.089844 L 65.976562 35.074219 C 66.910156 34.996094 67.636719 34.226562 67.671875 33.28125 L 67.796875 29.726562 L 69.945312 29.539062 C 70.878906 29.460938 71.605469 28.691406 71.636719 27.746094 L 71.761719 24.214844 C 71.773438 23.863281 71.6875 23.523438 71.515625 23.222656 C 71.484375 23.152344 71.449219 23.082031 71.414062 23.015625 Z M 71.410156 23.011719 "/>
<path style=" stroke:none;fill-rule:nonzero;fill:rgb(100%,100%,100%);fill-opacity:1;" d="M 5.75 29.789062 L 14.757812 29.003906 L 14.640625 32.457031 L 1.871094 33.570312 L 2.40625 18.300781 L 13.46875 17.335938 L 13.347656 20.789062 L 6.042969 21.425781 Z M 20.933594 20.390625 L 24.742188 20.058594 L 24.621094 23.589844 L 20.808594 23.921875 L 20.511719 32.421875 L 16.621094 32.757812 L 17.324219 12.6875 L 21.214844 12.347656 L 20.929688 20.394531 Z M 20.933594 20.390625 "/>
<path style=" stroke:none;fill-rule:nonzero;fill:rgb(100%,100%,100%);fill-opacity:1;" d="M 42.507812 27.777344 L 22.679688 29.503906 L 22.800781 26.054688 L 30.769531 25.359375 L 30.863281 22.625 L 25.242188 23.113281 L 25.644531 11.5625 L 40.835938 10.238281 L 40.433594 21.789062 L 34.757812 22.285156 L 34.660156 25.019531 L 42.632812 24.324219 L 42.511719 27.777344 Z M 36.769531 18.667969 L 36.933594 14.019531 L 29.285156 14.6875 L 29.121094 19.332031 Z M 36.769531 18.667969 "/>
<path style=" stroke:none;fill-rule:nonzero;fill:rgb(100%,100%,100%);fill-opacity:1;" d="M 47.625 23.183594 C 46.71875 23.261719 45.871094 23.175781 45.085938 22.875 C 44.296875 22.625 43.621094 22.207031 43.082031 21.648438 C 42.488281 21.144531 42.035156 20.492188 41.742188 19.726562 C 41.398438 18.960938 41.265625 18.125 41.296875 17.195312 C 41.328125 16.292969 41.519531 15.429688 41.921875 14.601562 C 42.269531 13.777344 42.773438 13.042969 43.40625 12.378906 C 43.988281 11.773438 44.695312 11.261719 45.507812 10.820312 C 46.316406 10.433594 47.175781 10.171875 48.085938 10.09375 C 48.988281 10.015625 49.863281 10.125 50.652344 10.371094 C 51.4375 10.675781 52.113281 11.066406 52.683594 11.574219 C 53.246094 12.132812 53.675781 12.785156 54.019531 13.546875 C 54.3125 14.3125 54.46875 15.148438 54.4375 16.050781 C 54.40625 16.980469 54.191406 17.847656 53.839844 18.671875 C 53.441406 19.5 52.964844 20.230469 52.359375 20.839844 C 51.75 21.5 51.039062 22.039062 50.230469 22.425781 C 49.414062 22.867188 48.53125 23.105469 47.625 23.183594 Z M 47.964844 13.492188 C 47.539062 13.527344 47.164062 13.640625 46.8125 13.832031 C 46.433594 14.023438 46.128906 14.285156 45.855469 14.601562 C 45.578125 14.917969 45.351562 15.28125 45.207031 15.664062 C 45.03125 16.078125 44.9375 16.480469 44.925781 16.878906 C 44.910156 17.332031 44.972656 17.722656 45.121094 18.078125 C 45.242188 18.464844 45.441406 18.792969 45.699219 19.035156 C 45.957031 19.332031 46.242188 19.542969 46.605469 19.667969 C 46.949219 19.800781 47.320312 19.84375 47.746094 19.808594 C 48.144531 19.773438 48.519531 19.660156 48.898438 19.46875 C 49.253906 19.28125 49.578125 19.015625 49.859375 18.671875 C 50.132812 18.382812 50.359375 18.019531 50.53125 17.605469 C 50.679688 17.222656 50.773438 16.816406 50.789062 16.367188 C 50.800781 15.96875 50.734375 15.578125 50.617188 15.191406 C 50.46875 14.832031 50.269531 14.507812 50.011719 14.238281 C 49.757812 13.96875 49.445312 13.757812 49.105469 13.628906 C 48.738281 13.5 48.367188 13.453125 47.96875 13.488281 Z M 47.851562 29.597656 C 47.878906 28.851562 48.0625 28.148438 48.40625 27.429688 C 48.722656 26.769531 49.167969 26.148438 49.746094 25.59375 C 50.296875 25.070312 50.921875 24.644531 51.679688 24.257812 C 52.410156 23.929688 53.1875 23.703125 54.039062 23.628906 C 54.839844 23.558594 55.605469 23.652344 56.34375 23.851562 C 57.050781 24.109375 57.679688 24.425781 58.25 24.851562 C 58.761719 25.308594 59.167969 25.855469 59.464844 26.464844 C 59.738281 27.128906 59.871094 27.804688 59.84375 28.550781 C 59.816406 29.320312 59.632812 30.050781 59.316406 30.738281 C 58.972656 31.40625 58.527344 32.023438 57.976562 32.550781 C 57.371094 33.078125 56.71875 33.535156 55.988281 33.886719 C 55.234375 34.21875 54.453125 34.445312 53.65625 34.515625 C 52.800781 34.589844 52.035156 34.496094 51.324219 34.292969 C 50.589844 34.066406 49.992188 33.722656 49.476562 33.289062 C 48.929688 32.863281 48.527344 32.316406 48.253906 31.703125 C 47.957031 31.066406 47.824219 30.363281 47.851562 29.59375 Z M 51.449219 29.285156 C 51.429688 29.894531 51.625 30.378906 52.089844 30.761719 C 52.527344 31.148438 53.078125 31.3125 53.773438 31.25 C 54.414062 31.195312 55.007812 30.929688 55.5 30.464844 C 55.96875 30 56.226562 29.476562 56.25 28.867188 C 56.269531 28.28125 56.046875 27.800781 55.609375 27.414062 C 55.144531 27.03125 54.5625 26.871094 53.925781 26.925781 C 53.230469 26.984375 52.664062 27.246094 52.195312 27.710938 C 51.703125 28.175781 51.46875 28.699219 51.449219 29.285156 Z M 60.585938 22.636719 L 56.667969 22.976562 L 57.167969 8.71875 L 61.085938 8.378906 L 60.894531 13.902344 L 64.675781 13.570312 L 64.554688 17.105469 L 60.769531 17.433594 Z M 60.585938 22.636719 "/>
<path style=" stroke:none;fill-rule:nonzero;fill:rgb(97.254902%,89.019608%,32.156863%);fill-opacity:1;" d="M 48.300781 6.296875 C 47.933594 6.328125 47.644531 6.058594 47.660156 5.6875 L 47.765625 2.601562 C 47.78125 2.238281 48.085938 1.914062 48.457031 1.882812 C 48.824219 1.851562 49.113281 2.121094 49.101562 2.488281 L 48.992188 5.574219 C 48.980469 5.941406 48.671875 6.261719 48.300781 6.296875 Z M 48.300781 6.296875 "/>
<path style=" stroke:none;fill-rule:nonzero;fill:rgb(97.254902%,89.019608%,32.156863%);fill-opacity:1;" d="M 43.542969 7.199219 C 43.90625 7.101562 44.15625 6.730469 44.101562 6.378906 L 43.636719 3.398438 C 43.578125 3.042969 43.238281 2.835938 42.875 2.9375 C 42.511719 3.035156 42.261719 3.402344 42.316406 3.757812 L 42.785156 6.738281 C 42.839844 7.09375 43.179688 7.300781 43.542969 7.199219 Z M 43.542969 7.199219 "/>
<path style=" stroke:none;fill-rule:nonzero;fill:rgb(97.254902%,89.019608%,32.156863%);fill-opacity:1;" d="M 53.078125 6.367188 C 52.71875 6.332031 52.496094 6.003906 52.574219 5.636719 L 53.253906 2.558594 C 53.335938 2.191406 53.691406 1.921875 54.054688 1.960938 C 54.410156 1.996094 54.636719 2.324219 54.554688 2.691406 L 53.875 5.769531 C 53.796875 6.136719 53.441406 6.402344 53.082031 6.367188 Z M 53.078125 6.367188 "/>
<path style=" stroke:none;fill-rule:nonzero;fill:rgb(14.509804%,34.901961%,57.647059%);fill-opacity:1;" d="M 73.882812 31.597656 C 73.882812 31.566406 74.109375 30.019531 74.386719 28.164062 L 74.890625 24.792969 L 72.273438 21.019531 C 70.835938 18.945312 69.621094 17.175781 69.574219 17.082031 C 69.4375 16.820312 69.449219 16.542969 69.613281 16.214844 C 69.679688 16.074219 70.46875 14.824219 71.363281 13.433594 C 72.792969 11.210938 73.007812 10.894531 73.128906 10.828125 C 73.285156 10.738281 73.390625 10.734375 73.59375 10.800781 C 73.761719 10.859375 78.898438 13.328125 79.027344 13.410156 C 79.140625 13.488281 79.164062 13.664062 79.09375 13.917969 C 79 14.257812 78.847656 14.511719 78.554688 14.804688 C 78.101562 15.261719 77.59375 15.464844 76.902344 15.464844 C 76.355469 15.464844 75.796875 15.320312 75.222656 15.039062 C 75.097656 14.976562 74.988281 14.921875 74.980469 14.921875 C 74.964844 14.921875 74.175781 16.460938 74.175781 16.492188 C 74.175781 16.511719 74.402344 16.628906 74.679688 16.769531 C 75.539062 17.199219 76.148438 17.625 76.789062 18.242188 C 78.199219 19.605469 79.085938 21.332031 79.703125 23.933594 C 79.71875 24.007812 79.832031 23.480469 80.121094 21.929688 C 80.339844 20.765625 80.53125 19.828125 80.550781 19.835938 C 80.566406 19.835938 81.148438 20.132812 81.835938 20.492188 C 82.527344 20.847656 83.109375 21.132812 83.132812 21.125 C 83.15625 21.101562 83.851562 20.402344 84.675781 19.546875 C 85.496094 18.6875 86.183594 17.984375 86.203125 17.980469 C 86.246094 17.980469 86.199219 19.191406 86.140625 19.550781 C 86.113281 19.714844 86.0625 19.945312 86.019531 20.0625 C 85.980469 20.179688 85.335938 21.527344 84.585938 23.054688 L 83.222656 25.824219 L 83.222656 31.65625 L 78.558594 31.65625 C 74.132812 31.65625 73.890625 31.65625 73.890625 31.597656 Z M 79.5625 28.859375 C 79.742188 27.78125 79.902344 26.941406 79.925781 26.914062 C 79.949219 26.890625 80.277344 26.648438 80.660156 26.375 C 81.203125 25.984375 81.324219 25.882812 81.230469 25.898438 C 80.414062 26.054688 79.699219 26.074219 79.152344 25.960938 C 78.792969 25.882812 78.386719 25.746094 77.894531 25.53125 L 77.609375 25.40625 L 78.320312 26.128906 L 79.035156 26.855469 L 79.105469 28.566406 C 79.179688 30.285156 79.214844 30.902344 79.234375 30.804688 C 79.242188 30.777344 79.390625 29.902344 79.566406 28.855469 Z M 82.867188 19.984375 C 82.363281 19.691406 81.5625 18.722656 81.65625 18.523438 C 81.699219 18.433594 85.269531 14.484375 85.328125 14.460938 C 85.605469 14.355469 86.898438 15.914062 86.984375 16.453125 C 87.007812 16.601562 87.242188 16.371094 84.921875 18.464844 C 83.941406 19.355469 83.113281 20.082031 83.085938 20.082031 C 83.058594 20.082031 82.957031 20.035156 82.867188 19.984375 Z M 80.925781 18.007812 C 80.195312 17.519531 79.148438 16.457031 79.222656 16.269531 C 79.230469 16.246094 80.03125 15.136719 80.996094 13.808594 C 82.492188 11.753906 82.765625 11.394531 82.839844 11.394531 C 83.273438 11.394531 84.777344 12.742188 85.136719 13.457031 C 85.28125 13.738281 85.390625 13.589844 83.265625 15.960938 C 81.765625 17.636719 81.304688 18.132812 81.238281 18.140625 C 81.179688 18.140625 81.074219 18.101562 80.929688 18.007812 Z M 79.390625 15.160156 C 79.523438 14.644531 79.585938 14.207031 79.574219 13.820312 C 79.558594 13.378906 79.515625 13.234375 79.34375 13.066406 C 79.292969 13.011719 78.859375 12.769531 78.378906 12.519531 C 77.898438 12.269531 77.5 12.0625 77.496094 12.058594 C 77.492188 12.058594 77.917969 11.324219 78.441406 10.441406 L 79.398438 8.832031 L 79.613281 8.832031 C 79.789062 8.832031 79.894531 8.863281 80.144531 8.972656 C 81.1875 9.429688 82.480469 10.464844 82.402344 10.777344 C 82.386719 10.824219 79.449219 15.15625 79.382812 15.222656 C 79.375 15.222656 79.375 15.203125 79.390625 15.15625 Z M 75.550781 11.136719 C 74.792969 10.773438 74.160156 10.464844 74.144531 10.449219 C 74.113281 10.417969 75.816406 7.324219 75.898438 7.257812 C 76.050781 7.140625 76.703125 7.3125 77.40625 7.660156 C 78.214844 8.054688 78.804688 8.519531 78.804688 8.757812 C 78.804688 8.839844 77.019531 11.800781 76.972656 11.796875 C 76.953125 11.796875 76.3125 11.496094 75.550781 11.132812 Z M 75.550781 11.136719 "/>
</g>
</svg>
