<svg width="100%" height="100%" viewBox="0 0 88 47" xmlns="http://www.w3.org/2000/svg" xmlns:xlink="http://www.w3.org/1999/xlink" xml:space="preserve" overflow="hidden"><defs><linearGradient x1="1.97243" y1="4.85389" x2="4.08767" y2="-0.641648" gradientUnits="userSpaceOnUse" spreadMethod="reflect" id="fill0"><stop offset="0" stop-color="#FFDE17"/><stop offset="0.5" stop-color="#FBB81A"/><stop offset="1" stop-color="#F7931D"/></linearGradient><linearGradient x1="-3.57259" y1="14.7503" x2="8.62376" y2="10.5255" gradientUnits="userSpaceOnUse" spreadMethod="reflect" id="fill1"><stop offset="0" stop-color="#FFDE17"/><stop offset="0.5" stop-color="#FBB81A"/><stop offset="1" stop-color="#F7931D"/></linearGradient><linearGradient x1="0.0305856" y1="9.1353" x2="16.0308" y2="9.1353" gradientUnits="userSpaceOnUse" spreadMethod="reflect" id="fill2"><stop offset="0" stop-color="#FFDE17"/><stop offset="0.5" stop-color="#F7D733"/><stop offset="1" stop-color="#F0D150"/></linearGradient></defs><g transform="translate(-3234 -1433)"><path d="M70.771 23.6648C70.742 23.7342 70.7077 23.8009 70.67 23.8664 70.6406 23.9369 70.6055 24.0047 70.5673 24.071 70.5381 24.1407 70.5037 24.2081 70.4658 24.2737 70.4364 24.3436 70.4014 24.4111 70.3635 24.4772 70.3346 24.5466 70.3 24.6135 70.2626 24.6789 70.2329 24.7493 70.198 24.817 70.1598 24.8834 70.1307 24.9531 70.096 25.0203 70.0583 25.086 70.0289 25.1561 69.9941 25.2236 69.9559 25.2895 69.927 25.3589 69.8926 25.4258 69.855 25.4911 69.8255 25.5616 69.7906 25.6294 69.7524 25.6959 69.723 25.7654 69.6886 25.8328 69.6507 25.8984 69.6215 25.9684 69.5864 26.036 69.5486 26.1019 69.5194 26.1713 69.4849 26.2382 69.4475 26.3036 69.418 26.374 69.3829 26.4419 69.3449 26.5081 69.3156 26.5778 69.2811 26.645 69.2432 26.7107 69.214 26.7807 69.1791 26.8481 69.1413 26.9139 69.1119 26.9839 69.0772 27.0514 69.039 27.1174 69.0101 27.1868 68.9755 27.2537 68.9381 27.319 68.9086 27.3895 68.8735 27.4573 68.8355 27.5238 68.8063 27.5935 68.7715 27.6607 68.7336 27.7263 68.7046 27.7964 68.6695 27.8638 68.6316 27.9298 68.6026 27.9992 68.5681 28.0663 68.5306 28.1314 68.501 28.2021 68.4661 28.2698 68.4279 28.336 68.3985 28.4059 68.3641 28.4731 68.3262 28.5386 68.297 28.6088 68.2621 28.6763 68.2241 28.7422 68.195 28.8117 68.1606 28.8785 68.123 28.9438 68.0936 29.0144 68.0584 29.082 68.0204 29.1484 67.9912 29.2182 67.9565 29.2855 67.9187 29.351 67.8894 29.4211 67.8544 29.4887 67.8165 29.5547 67.7876 29.6239 67.7532 29.691 67.7156 29.7563 67.6859 29.8268 67.651 29.8946 67.6128 29.9607 67.5836 30.0306 67.549 30.0978 67.5113 30.1633 67.4817 30.2333 67.4473 30.3007 67.4093 30.3665 67.3799 30.4366 67.345 30.5042 67.3071 30.5701 67.278 30.6394 67.2437 30.7064 67.2061 30.7718 67.1766 30.8422 67.1417 30.9101 67.1035 30.9763 67.0742 31.046 67.0397 31.1134 67.0018 31.179 66.9725 31.2489 66.9375 31.3166 66.8996 31.3826 66.8707 31.4518 66.8361 31.5188 66.7985 31.5842 66.769 31.6546 66.734 31.7225 66.6959 31.7886 66.6668 31.8585 66.6321 31.9257 66.5944 31.9913 66.5648 32.0613 66.5301 32.1289 66.4921 32.195 66.463 32.2642 66.4285 32.3311 66.3912 32.3965 66.3615 32.4671 66.3267 32.5348 66.2884 32.6011 66.2591 32.6707 66.2246 32.7382 66.1867 32.8038 66.1575 32.8736 66.1226 32.9413 66.0845 33.0074 66.0556 33.0765 66.0208 33.1436 65.9835 33.209 65.954 33.2794 65.919 33.3474 65.8809 33.4135 65.8518 33.4832 65.817 33.5506 65.7791 33.616 65.6821 33.8476 65.5379 34.0597 65.3515 34.2361 65.042 34.5294 64.642 34.7018 64.222 34.7324 64.2039 34.7698 64.1852 34.8065 64.1646 34.8423 64.1349 34.913 64.1003 34.9805 64.0622 35.0461 64.0329 35.1165 63.998 35.1837 63.9605 35.2489 63.9309 35.3194 63.8964 35.3866 63.8587 35.4521 63.8291 35.5227 63.7942 35.5899 63.7567 35.6555 63.7272 35.7256 63.6927 35.7926 63.6553 35.8578 63.6256 35.9284 63.5907 35.9961 63.5528 36.062 63.5234 36.132 63.4887 36.1993 63.4511 36.2647 63.4217 36.3351 63.3869 36.4025 63.349 36.468 63.3199 36.538 63.2851 36.6051 63.2477 36.6703 63.2181 36.7409 63.1833 36.8084 63.1453 36.8742 63.1161 36.9444 63.0812 37.0116 63.0435 37.077 63.014 37.1474 62.9793 37.2148 62.9415 37.2802 62.9122 37.3503 62.8774 37.4173 62.84 37.4825 62.8106 37.5531 62.7757 37.6208 62.7379 37.6866 62.7084 37.7567 62.6736 37.824 62.636 37.8894 62.6068 37.9598 62.5717 38.0272 62.534 38.0927 62.5048 38.1627 62.4702 38.2298 62.4327 38.2951 62.4031 38.3656 62.3682 38.4331 62.3303 38.4989 62.3007 38.5694 62.2659 38.6367 62.2281 38.7024 61.953 39.3582 61.3053 39.8199 60.5485 39.8244L60.5361 39.8244C60.5242 39.8244 60.5124 39.8244 60.5005 39.8241L60.4996 39.8241 60.4988 39.8241C60.4509 39.8233 60.4033 39.8205 60.3563 39.8159L58.255 39.6347C58.2244 39.7018 58.1922 39.7685 58.1556 39.8327 58.1246 39.9014 58.0918 39.9688 58.0545 40.0345 58.0232 40.1041 57.9899 40.1725 57.9517 40.239 57.9207 40.3077 57.8877 40.3759 57.8502 40.4417 57.8192 40.5106 57.7857 40.579 57.748 40.6451 57.7172 40.7136 57.6844 40.7814 57.647 40.8469 57.6157 40.9163 57.5822 40.9849 57.5443 41.0512 57.5132 41.1201 57.4802 41.1881 57.4426 41.2539 57.4115 41.3228 57.3785 41.391 57.3408 41.4571 57.3097 41.5263 57.2764 41.5945 57.2386 41.6606 57.2077 41.7292 57.1748 41.7969 57.1376 41.8624 57.1063 41.9318 57.073 42.0004 57.0349 42.0669 57.0038 42.1356 56.9708 42.2037 56.9332 42.2695 56.9023 42.3386 56.8688 42.4069 56.8311 42.4731 56.8 42.5415 56.7674 42.6093 56.73 42.6748 56.6987 42.7442 56.6653 42.813 56.6274 42.8792 56.5963 42.9482 56.5634 43.016 56.5257 43.0818 56.4946 43.151 56.4613 43.2192 56.4235 43.2853 56.3927 43.3539 56.3599 43.4216 56.3225 43.4871 56.2912 43.5568 56.2578 43.6253 56.2198 43.6916 56.1888 43.7604 56.1558 43.8284 56.1182 43.8942 56.0872 43.9633 56.0537 44.0316 56.016 44.0978 55.985 44.1663 55.9524 44.234 55.9151 44.2997 55.8837 44.369 55.8502 44.4377 55.8123 44.5039 55.7811 44.5729 55.7483 44.6407 55.7108 44.7065 55.6449 44.8527 55.5654 44.9932 55.4701 45.1246 55.0705 45.6762 54.4474 46.032 53.7606 46.1011 53.6777 46.1094 53.5944 46.1134 53.5119 46.1134L53.5118 46.1134C52.316 46.1134 51.2591 45.2638 50.9989 44.0935L50.8894 43.6021C50.866 43.6519 50.8398 43.7003 50.8125 43.7482 50.7819 43.8173 50.7481 43.8847 50.711 43.9506 50.6802 44.0202 50.6461 44.0879 50.6087 44.1543 50.5782 44.2231 50.5447 44.2901 50.5076 44.3559 50.4769 44.4256 50.4426 44.4939 50.4052 44.5607 50.3745 44.6296 50.3407 44.6971 50.3033 44.7632 50.1913 45.0167 50.0369 45.2519 49.8384 45.4566 49.3824 45.9276 48.7646 46.1873 48.0986 46.1873 48.0267 46.1873 47.9539 46.1838 47.8821 46.1777 46.5851 46.066 45.5725 45.0073 45.5264 43.7152L45.4868 42.599C45.4621 42.6507 45.4371 42.702 45.4092 42.7514 45.3781 42.8206 45.3444 42.8885 45.3072 42.954 45.2762 43.0237 45.2424 43.0918 45.2053 43.1576 45.1745 43.2265 45.1409 43.2939 45.1039 43.3589 45.0728 43.4291 45.0388 43.4978 45.0015 43.5637 44.9705 43.6331 44.937 43.7008 44.8998 43.7663 44.5221 44.6123 43.6749 45.1804 42.6973 45.1804 42.4759 45.1804 42.2541 45.1508 42.0378 45.0923 40.7808 44.7524 39.9536 43.4987 40.1543 42.238L40.6164 39.3194C40.6624 39.0274 40.7594 38.7554 40.8979 38.5115 40.9288 38.4417 40.9626 38.3737 40.9999 38.3079 41.0307 38.2389 41.0642 38.1717 41.1011 38.1065 41.1323 38.0363 41.1662 37.9679 41.2037 37.9017 41.2107 37.8858 41.2187 37.8704 41.2261 37.8546 41.0073 37.9482 40.7667 38.0008 40.5138 38.0021L40.5128 38.0021 40.5125 38.0021 40.5026 38.0021C40.4919 38.0021 40.481 38.0019 40.4704 38.0019 40.4206 38.0009 40.371 37.9981 40.3225 37.9934L25.3136 36.6983C24.3907 36.6187 23.6723 35.8652 23.6397 34.9425L23.5786 33.2214C23.5529 33.2807 23.5236 33.3378 23.4914 33.3939 23.4623 33.4633 23.4279 33.5304 23.3902 33.5956 23.3607 33.6662 23.3259 33.7338 23.2877 33.8001 23.2583 33.87 23.2237 33.9372 23.186 34.0027 23.1566 34.0729 23.1217 34.1403 23.0838 34.2063 23.0546 34.2756 23.0204 34.3426 22.9828 34.4079 22.9532 34.4785 22.9182 34.5463 22.88 34.6125 22.8508 34.6823 22.8163 34.7496 22.7783 34.8153 22.6813 35.0467 22.537 35.2586 22.3506 35.4353 22.0085 35.7593 21.5558 35.9379 21.0881 35.9379 21.0355 35.9379 20.9826 35.9355 20.9298 35.931L17.0807 35.599C16.1578 35.5193 15.4395 34.7657 15.407 33.843L15.2585 29.648C15.2418 29.6802 15.2253 29.7121 15.2069 29.7434 15.1767 29.8127 15.1436 29.8807 15.1053 29.9458 15.0082 30.1702 14.8676 30.376 14.6861 30.548 14.344 30.872 13.8916 31.0506 13.4236 31.0506 13.3708 31.0506 13.3182 31.0484 13.2654 31.044L2.32191 30.0997C1.39885 30.0201 0.680584 29.2665 0.648032 28.3437L0.118509 13.3913C0.106229 13.0473 0.193357 12.7117 0.36183 12.4191 0.391068 12.3492 0.425958 12.2817 0.463836 12.2155 0.492879 12.1462 0.527314 12.0793 0.564868 12.0139 0.59443 11.9435 0.629321 11.8756 0.667654 11.8094 0.696762 11.7396 0.731457 11.6723 0.769206 11.6067 0.798573 11.5368 0.833333 11.4691 0.871537 11.4031 0.900449 11.3338 0.935015 11.2669 0.972439 11.2015 1.002 11.131 1.03689 11.0633 1.07522 10.9969 1.10427 10.9272 1.1389 10.86 1.17678 10.7944 1.20614 10.7242 1.24103 10.6568 1.27891 10.5909 1.30795 10.5215 1.34239 10.4546 1.37994 10.3892 1.4097 10.3188 1.4444 10.2509 1.4826 10.1845 1.51184 10.1149 1.5466 10.0476 1.58428 9.98196 1.61352 9.91189 1.64841 9.84441 1.68648 9.77842 1.71553 9.70906 1.75009 9.64216 1.78751 9.57682 1.81688 9.5063 1.85197 9.43849 1.89017 9.37224 1.91941 9.30237 1.95378 9.23534 1.99185 9.16967 2.02109 9.09967 2.05578 9.03225 2.09366 8.96645 2.1231 8.89645 2.15799 8.8289 2.19586 8.76298 2.22491 8.69355 2.25947 8.62672 2.2969 8.56138 2.32646 8.49073 2.36148 8.42305 2.39955 8.35661 2.42879 8.28692 2.46349 8.21951 2.50123 8.15404 2.53047 8.08403 2.56536 8.01649 2.60337 7.95037 2.63248 7.88114 2.66691 7.81411 2.70447 7.74877 2.73383 7.67831 2.76885 7.61063 2.80706 7.54432 2.83649 7.47444 2.87086 7.40728 2.90893 7.34175 2.93798 7.27161 2.97306 7.20407 3.01094 7.13814 3.03998 7.06872 3.07442 7.00182 3.11197 6.93648 3.14153 6.86602 3.17655 6.79815 3.21463 6.7319 3.24367 6.66222 3.27843 6.5948 3.31618 6.52933 3.34555 6.45932 3.38044 6.39165 3.41845 6.32572 3.44742 6.25643 3.48179 6.1894 3.51935 6.12406 3.54891 6.0536 3.5838 5.98573 3.6222 5.91961 3.65137 5.84973 3.686 5.78258 3.72388 5.71691 3.75312 5.64703 3.78768 5.57968 3.82589 5.51389 3.85493 5.44369 3.89001 5.37621 3.92789 5.31022 3.95694 5.24099 3.99118 5.17396 4.02892 5.10862 4.05849 5.03809 4.09338 4.97029 4.13158 4.90404 4.16082 4.83429 4.19538 4.76694 4.23307 4.70127 4.2625 4.63146 4.29739 4.56379 4.3354 4.4978 4.36431 4.42857 4.39888 4.36154 4.4363 4.2962 4.46586 4.22568 4.50088 4.15787 4.53909 4.09175 4.56819 4.02187 4.60289 3.95465 4.64077 3.88905 4.67 3.81898 4.7049 3.7515 4.74297 3.68538 4.77188 3.61615 4.80632 3.54925 4.844 3.48378 4.87356 3.41339 4.90832 3.34558 4.94646 3.27933 4.97589 3.20959 5.01046 3.14224 5.04821 3.07657 5.07758 3.00676 5.11247 2.93908 5.15034 2.87296 5.17958 2.80373 5.21402 2.73684 5.25138 2.6713 5.28094 2.60097 5.31602 2.53297 5.35416 2.46704 5.3834 2.39717 5.41783 2.32995 5.45591 2.26434 5.55285 2.03276 5.69715 1.8208 5.88356 1.64426 6.2257 1.32014 6.67836 1.14172 7.14622 1.14172 7.19872 1.14172 7.25154 1.14393 7.30437 1.14846L19.9355 2.23818C20.1451 2.25618 20.3437 2.30896 20.5263 2.39043 20.8619 2.09545 21.2933 1.93394 21.7386 1.93394 21.7913 1.93394 21.8439 1.93614 21.8969 1.94067L25.7457 2.27263C26.6686 2.35255 27.387 3.1059 27.4197 4.02861L27.4592 5.14385C27.5492 5.13038 27.6399 5.12163 27.732 5.12163 27.7846 5.12163 27.8373 5.12384 27.8902 5.12837L47.5093 6.82088C48.3791 6.89607 49.0665 7.5697 49.1703 8.41942 49.1811 8.3989 49.1915 8.37804 49.2025 8.35771 49.2355 8.28971 49.2685 8.22171 49.3037 8.15559 49.3373 8.08701 49.3707 8.01823 49.4061 7.95147 49.4392 7.88431 49.4716 7.81663 49.5068 7.7511 49.5404 7.68206 49.574 7.61251 49.6099 7.54529 49.6432 7.47742 49.676 7.40929 49.7114 7.34317 49.7447 7.27504 49.7777 7.2064 49.8133 7.14015 49.8467 7.07157 49.8799 7.00279 49.9157 6.93602 49.9487 6.86867 49.9813 6.80113 50.0162 6.73566 50.0499 6.66643 50.0834 6.597 50.1194 6.52965 50.1526 6.46165 50.1854 6.39385 50.2208 6.32773 50.2543 6.25908 50.2876 6.19031 50.3231 6.12361 50.3561 6.05638 50.3885 5.98871 50.4235 5.92324 50.4575 5.85414 50.4908 5.78459 50.5268 5.71736 50.5601 5.64943 50.593 5.58143 50.6283 5.51531 50.6618 5.44667 50.695 5.37809 50.7307 5.31132 50.7637 5.24397 50.7962 5.17629 50.8312 5.11082 50.865 5.04172 50.8985 4.9723 50.9343 4.90495 50.9677 4.83695 51.0005 4.76914 51.0359 4.70289 51.0692 4.63425 51.1025 4.56567 51.1382 4.4989 51.1712 4.43168 51.2036 4.364 51.2386 4.29853 51.2724 4.2293 51.3057 4.15988 51.3419 4.09253 51.3729 4.02958 51.4029 3.96592 51.4355 3.90421 51.8307 3.07832 52.3867 2.37573 53.0948 1.81679 53.826 1.21581 54.6265 0.788133 55.5412 0.508628 55.5536 0.504871 55.566 0.501115 55.5782 0.497683 56.3068 0.29181 57.0571 0.187481 57.8089 0.187481 58.0506 0.187481 58.2976 0.198167 58.5429 0.219602 59.4783 0.29997 60.4477 0.55519 61.4236 0.977881 61.4457 0.98753 61.4679 0.997762 61.4898 1.00806 62.3283 1.41165 63.1047 1.92785 63.8629 2.58659 63.8822 2.60317 63.9009 2.62027 63.9193 2.63762 64.5936 3.27428 65.1629 4.03444 65.6111 4.89711 65.6238 4.9214 65.6358 4.94633 65.6474 4.97107 66.0714 5.88535 66.3036 6.84329 66.338 7.81832 66.3723 8.7791 66.2057 9.69371 65.8288 10.6143 65.8128 10.6535 65.7955 10.6919 65.7769 10.7298 65.7592 10.7654 65.7379 10.798 65.7197 10.8332 65.7056 10.8669 65.691 10.9003 65.6749 10.933 65.6573 10.9687 65.6358 11.0015 65.6177 11.037 65.6037 11.0703 65.589 11.1035 65.5731 11.1361 65.5556 11.171 65.5347 11.2034 65.5168 11.2381 65.5025 11.2722 65.4876 11.306 65.4711 11.3392 65.4536 11.3748 65.4321 11.4079 65.414 11.443 65.3999 11.4763 65.3851 11.5097 65.3692 11.5421 65.3518 11.5778 65.3304 11.6104 65.3125 11.6455 65.2983 11.6792 65.2834 11.7126 65.2672 11.7453 65.2515 11.7777 65.232 11.8072 65.2157 11.8392L65.3953 11.8545C66.3184 11.9342 67.0365 12.6877 67.0692 13.6105L67.1925 17.0911 69.3202 17.2746C70.2431 17.3543 70.9614 18.1076 70.9941 19.0305L71.1165 22.4891C71.1286 22.8331 71.0416 23.1686 70.8732 23.4613 70.844 23.5312 70.8091 23.5987 70.771 23.6648" fill="#262626" fill-rule="evenodd" transform="matrix(1 0 0 -1 3234 1480)"/><path d="M19.2626 13.2286 23.0952 13.5573 22.9711 10.0629 19.1381 9.73392 18.8387 1.32601 14.9266 0.99047 15.6341 20.8542 19.5461 21.19ZM3.99601 3.92988 13.0548 4.70671 12.9333 1.29088 0.0951588 0.190019 0.633357 15.2979 11.7562 16.2519 11.6344 12.8362 4.29073 12.2064Z" fill="#FFFFFF" fill-rule="evenodd" transform="matrix(1 0 0 -1 3236 1467)"/><path d="M13.5178 10.8749 13.6729 15.4578 6.38827 14.8003 6.23318 10.2174ZM18.9833 1.89183 0.0989363 0.187161 0.214195 3.59147 7.80352 4.2764 7.89489 6.9738 2.53914 6.49051 2.92475 17.8814 17.3923 19.1871 17.0067 7.7962 11.6008 7.30828 11.5095 4.61101 19.0988 5.29594Z" fill="#FFFFFF" fill-rule="evenodd" transform="matrix(1 0 0 -1 3257 1463)"/><path d="M19.0909 12.0195 15.2368 11.6802 15.7281 25.8492 19.5825 26.1886 19.3918 20.7003 23.1147 21.0282 22.9929 17.519 19.2703 17.1911ZM10.1054 5.41506C10.0843 4.80818 10.2766 4.32542 10.7342 3.94476 11.1649 3.56181 11.7084 3.39918 12.39 3.45931 13.0191 3.51463 13.6034 3.77675 14.0899 4.24039 14.5502 4.70166 14.8035 5.22366 14.8244 5.83054 14.8449 6.41108 14.626 6.89154 14.1953 7.27449 13.7381 7.65515 13.1687 7.81554 12.5392 7.76021 11.8576 7.70002 11.2997 7.44041 10.8393 6.97913 10.3529 6.51529 10.1255 5.99573 10.1054 5.41506M6.56618 5.10334C6.59182 5.8423 6.77295 6.54204 7.11125 7.2557 7.4217 7.91443 7.86116 8.53183 8.42916 9.08175 8.97016 9.60269 9.58565 10.0253 10.3309 10.4066 11.048 10.7328 11.8139 10.9579 12.653 11.0318 13.4391 11.1011 14.1942 11.0097 14.919 10.8105 15.6159 10.5563 16.2324 10.2421 16.7926 9.81802 17.2995 9.36279 17.6991 8.81918 17.9914 8.21387 18.2563 7.5531 18.3896 6.88109 18.364 6.14213 18.3374 5.37709 18.1555 4.65081 17.8441 3.96586 17.5075 3.30483 17.0681 2.68743 16.5272 2.16635 15.9339 1.64055 15.2909 1.18926 14.5728 0.836736 13.8296 0.508324 13.0638 0.283074 12.2775 0.213948 11.4385 0.139894 10.6834 0.231427 9.98479 0.432824 9.26079 0.658534 8.67153 1.00127 8.16367 1.42976 7.62958 1.85641 7.2303 2.39988 6.9639 3.00789 6.67212 3.63955 6.5395 4.33829 6.56618 5.10334M6.67716 21.1064C6.2574 21.0695 5.88804 20.958 5.54141 20.7696 5.16888 20.5793 4.87231 20.3163 4.60023 20.003 4.32788 19.6895 4.10599 19.3281 3.96239 18.9472 3.79108 18.5376 3.6989 18.1349 3.68514 17.739 3.66938 17.2906 3.73436 16.9016 3.87874 16.5462 3.99631 16.1619 4.1941 15.8374 4.44726 15.5966 4.69835 15.3031 4.97838 15.091 5.3398 14.9649 5.67532 14.8368 6.03958 14.7899 6.45914 14.8268 6.85247 14.8613 7.22249 14.9729 7.59457 15.1635 7.94087 15.3518 8.26386 15.617 8.53697 15.9568 8.80841 16.2436 9.02985 16.6051 9.2011 17.015 9.34489 17.3956 9.43752 17.7984 9.4527 18.2471 9.46646 18.6426 9.40161 19.0316 9.28443 19.4158 9.13999 19.7715 8.94232 20.0959 8.68981 20.363 8.43775 20.6301 8.1313 20.84 7.79598 20.9683 7.43456 21.0943 7.07029 21.1412 6.67716 21.1064M6.34261 11.4758C5.45142 11.3974 4.61786 11.4818 3.84425 11.7819 3.06869 12.0294 2.40366 12.4443 1.8739 13.0027 1.29039 13.5037 0.842219 14.1482 0.555019 14.9118 0.215303 15.6713 0.0873354 16.5017 0.119376 17.4252 0.150641 18.3222 0.337197 19.1803 0.731628 20.0042 1.0738 20.8236 1.56965 21.5511 2.19359 22.211 2.76353 22.8136 3.4606 23.3222 4.25986 23.7608 5.05732 24.1467 5.90283 24.4053 6.79433 24.4838 7.68565 24.5624 8.54466 24.4538 9.32015 24.2063 10.0935 23.9062 10.7597 23.5177 11.3172 23.0143 11.8732 22.4583 12.295 21.8115 12.6347 21.0523 12.9218 20.2886 13.076 19.4605 13.045 18.5631 13.0129 17.6397 12.7999 16.7792 12.4576 15.9598 12.0635 15.136 11.5935 14.4108 10.9977 13.8059 10.4 13.1484 9.7016 12.6132 8.90434 12.2274 8.10475 11.7888 7.23437 11.5543 6.34261 11.4758" fill="#FFFFFF" fill-rule="evenodd" transform="matrix(1 0 0 -1 3275 1468)"/><path d="M1.04678 0.165018C0.535872 0.135918 0.136679 0.38141 0.154265 0.713362L0.304885 3.50669C0.322744 3.83883 0.751004 4.13138 1.26127 4.16048 1.77199 4.18964 2.17137 3.94397 2.15333 3.61196L2.00344 0.818564C1.9853 0.486552 1.55704 0.193998 1.04678 0.165018" fill="#F9E454" fill-rule="evenodd" transform="matrix(1 0 0 -1 3281 1440)"/><path d="M1.49124 0.190182C1.89547 0.28233 2.17351 0.623271 2.11159 0.951767L1.59234 3.71627C1.53092 4.04495 1.15317 4.23623 0.74894 4.14415 0.344711 4.05206 0.0668123 3.71112 0.128738 3.38244L0.647992 0.61806C0.709261 0.289442 1.08701 0.098095 1.49124 0.190182" fill="#F9E454" fill-rule="evenodd" transform="matrix(1 0 0 -1 3276 1441)"/><path d="M0.629876 0.165856C0.272929 0.198871 0.0488585 0.494571 0.128963 0.826343L0.80424 3.61863C0.884345 3.95058 1.23881 4.19277 1.5957 4.16 1.95264 4.1268 2.17704 3.83128 2.09641 3.49933L1.4212 0.706924C1.34103 0.374973 0.986758 0.13278 0.629876 0.165856" fill="#F9E454" fill-rule="evenodd" transform="matrix(1 0 0 -1 3286 1440)"/><path d="M23.9228 12.0273C23.8966 12.0961 23.8642 12.162 23.8268 12.2246 23.8023 12.2878 23.773 12.3496 23.7382 12.4076 23.7139 12.4705 23.685 12.5314 23.651 12.5894 23.6255 12.6526 23.5961 12.7144 23.562 12.7724 23.537 12.8352 23.5087 12.8959 23.4746 12.9534 23.4494 13.0171 23.4203 13.0784 23.3855 13.1371 23.361 13.1998 23.3323 13.2607 23.2982 13.3182 23.2726 13.3814 23.2444 13.4432 23.2098 13.5012 23.1841 13.5642 23.1558 13.625 23.1218 13.683 23.0967 13.7463 23.0674 13.8077 23.0333 13.866 23.0082 13.9285 22.9794 13.9895 22.9453 14.0475 22.9208 14.1104 22.8917 14.1714 22.8574 14.2297 22.8326 14.293 22.8037 14.3544 22.769 14.4128 22.744 14.4752 22.7151 14.5362 22.6811 14.5942 22.656 14.6576 22.6267 14.7188 22.5927 14.7774 22.5676 14.84 22.5388 14.9007 22.5047 14.9586 22.4797 15.0218 22.4504 15.0836 22.4158 15.1419 22.3911 15.2046 22.3624 15.2655 22.3283 15.3232 22.3038 15.3864 22.2744 15.4479 22.2399 15.5064 22.2152 15.5689 22.1864 15.6297 22.1525 15.6878 22.1274 15.7508 22.0981 15.8118 22.0645 15.8701 22.039 15.9333 22.0102 15.9948 21.976 16.0532 21.9504 16.1156 21.9222 16.1766 21.8875 16.2347 21.8631 16.298 21.8336 16.3591 21.7991 16.4177 21.7747 16.4803 21.7459 16.541 21.7118 16.5989 21.6868 16.6621 21.6575 16.7238 21.6228 16.7823 21.5983 16.8449 21.5695 16.9054 21.536 16.9631 21.5104 17.0268 21.4809 17.0884 21.4469 17.1467 21.4219 17.2093 21.3932 17.2704 21.3591 17.3282 21.3339 17.3912 21.3052 17.4526 21.2705 17.5111 21.2454 17.5738 21.2173 17.6348 21.1826 17.6927 21.158 17.7556 21.1292 17.8169 21.0946 17.875 21.0696 17.938 21.0407 17.9995 21.0062 18.0578 20.9812 18.1207 20.9523 18.1816 20.9183 18.2394 20.8932 18.3027 20.8639 18.3643 20.8297 18.4226 20.8048 18.4849 20.7765 18.5457 20.7424 18.6033 20.7174 18.6671 20.6881 18.7284 20.6535 18.7871 20.6289 18.8497 20.6001 18.9107 20.5661 18.9686 20.541 19.0315 20.5122 19.0931 20.4776 19.1511 20.4526 19.2142 20.4237 19.275 20.3897 19.333 20.3646 19.3959 20.3358 19.4573 20.3013 19.5152 20.2767 19.5784 20.2474 19.6399 20.2129 19.6978 20.1881 19.7609 20.1594 19.8218 20.1254 19.8795 20.1001 19.9427 20.0714 20.0045 20.037 20.0627 20.0117 20.1254 19.9834 20.1862 19.9489 20.2441 19.9239 20.3075 19.8952 20.3691 19.8604 20.4275 19.8354 20.4901 19.8066 20.5508 19.7725 20.6083 19.7475 20.6718 19.7182 20.7333 19.6841 20.7919 19.659 20.8548 19.6302 20.9154 19.5962 20.973 19.5716 21.0363 19.5424 21.0981 19.5077 21.1563 19.4833 21.2189 19.4545 21.2799 19.4202 21.3377 19.3161 21.6007 19.1283 21.8253 18.882 21.9771 18.8543 21.9941 17.0942 23.0805 14.7319 24.6644 14.7297 24.6688 14.7272 24.6734 14.7247 24.6777 14.6957 24.7404 14.6659 24.8022 14.635 24.8633 14.6071 24.9235 14.5785 24.9831 14.5487 25.0417 14.5195 25.1044 14.49 25.1667 14.4591 25.2279 14.4306 25.288 14.4018 25.348 14.3723 25.4068 14.3435 25.4693 14.3138 25.5309 14.2827 25.5914 14.2544 25.6523 14.2256 25.7122 14.1959 25.7713 14.1671 25.8339 14.1372 25.8956 14.1064 25.9561 14.0785 26.017 14.0497 26.0767 14.0196 26.1358 13.9912 26.1974 13.9621 26.2581 13.9314 26.3182 13.9028 26.3806 13.8732 26.4423 13.8422 26.5028 13.8141 26.5638 13.7852 26.6234 13.7551 26.6825 13.7263 26.7453 13.6968 26.807 13.6655 26.8684 13.6379 26.9281 13.6092 26.9877 13.5796 27.0462 13.5501 27.1093 13.5201 27.1716 13.4892 27.2325 13.4615 27.2931 13.4327 27.3527 13.4024 27.4116 13.3739 27.4742 13.3441 27.5359 13.3131 27.5963 13.2853 27.6572 13.2565 27.717 13.2265 27.7762 13.1983 27.8378 13.1689 27.8985 13.1386 27.9584 13.1098 28.021 13.0799 28.0826 13.049 28.1432 13.0208 28.2041 12.992 28.2637 12.9619 28.323 12.9332 28.3856 12.9036 28.4474 12.8728 28.5084 12.8446 28.5685 12.8158 28.6281 12.7864 28.6866 12.7569 28.7496 12.7273 28.8117 12.696 28.8731 12.6681 28.933 12.6397 28.9926 12.6098 29.0512 12.5807 29.1139 12.5508 29.1762 12.5199 29.2374 12.4916 29.2979 12.4629 29.3579 12.4333 29.4165 12.4045 29.4789 12.3748 29.5407 12.344 29.6011 12.3158 29.6618 12.2869 29.722 12.2566 29.7811 12.2283 29.8426 12.1993 29.9036 12.1689 29.9632 12.14 30.0256 12.1102 30.0874 12.0794 30.148 12.0514 30.2085 12.0226 30.2688 11.9928 30.3279 11.9635 30.3905 11.9337 30.4524 11.9028 30.5133 11.8751 30.5732 11.8464 30.6329 11.8165 30.6916 11.7875 30.7543 11.7578 30.8166 11.7269 30.8778 11.6984 30.9383 11.6699 30.998 11.6401 31.0568 11.6113 31.1193 11.5818 31.1808 11.5508 31.2415 11.5222 31.302 11.4937 31.3622 11.4636 31.4215 11.4354 31.483 11.4061 31.544 11.3755 31.6036 11.347 31.666 11.3171 31.7275 11.2862 31.7882 11.2585 31.8489 11.2298 31.9091 11.1994 31.9682 11.1706 32.0305 11.1411 32.0921 11.1102 32.1528 11.0818 32.2137 11.053 32.2738 11.0231 32.3328 10.9943 32.3951 10.9646 32.4571 10.9337 32.5181 10.9058 32.5783 10.877 32.6379 10.8474 32.6966 10.8184 32.7593 10.7879 32.8216 10.7571 32.8827 10.7293 32.943 10.7007 33.0029 10.6703 33.0616 10.6417 33.1241 10.6122 33.1857 10.5811 33.2464 10.5532 33.3071 10.5246 33.3674 10.4943 33.4263 9.57521 35.4126 7.59817 36.5728 5.71753 37.0148 5.52725 37.0712 5.35003 37.1162 5.17714 37.1526 5.11324 37.166 5.03465 37.1756 4.96919 37.1804 4.96919 37.1804 4.90333 37.1847 4.78459 37.1847 3.16951 37.1847 1.1876 36.471 0.419627 34.4762 0.340562 34.332 0.28898 34.1722 0.270297 34.0026 0.128481 32.713-0.0903022 29.6798 0.743537 28.1628 0.772374 28.1006 0.800535 28.0374 0.832486 27.9794 0.860646 27.9181 0.888129 27.8553 0.92008 27.7981 0.948849 27.736 0.976874 27.6725 1.00862 27.6146 1.03732 27.5534 1.06481 27.4912 1.09642 27.4341 1.12505 27.3715 1.15321 27.3081 1.18517 27.25 1.21333 27.1888 1.24121 27.1262 1.27262 27.0691 1.30126 27.007 1.32908 26.9438 1.36123 26.8858 1.38939 26.8244 1.41722 26.7619 1.44883 26.7047 1.47767 26.6424 1.50583 26.5791 1.53744 26.5213 1.56607 26.46 1.59342 26.397 1.62517 26.34 1.65367 26.2782 1.68135 26.2156 1.7133 26.1579 1.74207 26.0956 1.76996 26.0322 1.80185 25.9746 1.83001 25.9131 1.8579 25.8503 1.88917 25.7933 1.91794 25.731 1.9461 25.6678 1.97805 25.6096 2.00641 25.5484 2.0341 25.4861 2.06537 25.4291 2.09448 25.3668 2.12264 25.3033 2.15425 25.2451 2.18309 25.1836 2.21058 25.1215 2.24205 25.0643 2.27069 25.0022 2.29885 24.939 2.33093 24.881 2.35909 24.8196 2.38631 24.757 2.41839 24.6996 2.44676 24.6378 2.47458 24.5752 2.50632 24.5174 2.53516 24.4553 2.56312 24.3922 2.59473 24.3341 2.62323 24.2727 2.65139 24.2103 2.68266 24.1529 2.71116 24.0907 2.73966 24.0274 2.77141 23.9693 2.79977 23.9081 2.82712 23.8456 2.85853 23.7886 2.88784 23.7267 2.91553 23.663 2.94748 23.6047 2.97632 23.5436 3.0038 23.4812 3.03473 23.4243 3.06357 23.3618 3.09221 23.2986 3.12382 23.2403 3.15218 23.179 3.18 23.1164 3.21162 23.0593 3.24025 22.9973 3.26827 22.9341 3.30002 22.8763 3.32852 22.8148 3.35621 22.7524 3.38762 22.6948 3.41632 22.6332 3.44414 22.5701 3.47555 22.5126 3.50439 22.4506 3.53255 22.3874 3.56463 22.3296 3.593 22.2679 3.62034 22.2056 3.65209 22.1481 3.68093 22.086 3.70875 22.0223 3.7407 21.9645 3.7692 21.9032 3.79702 21.841 3.8283 21.784 3.85713 21.7215 3.88543 21.6583 3.91725 21.5999 3.92706 21.5795 3.93573 21.5585 3.94601 21.5384 3.12233 18.2232 2.25383 15.1947 2.24266 15.1551 2.23616 15.133 2.23027 15.1111 2.22499 15.0888 2.03884 14.2804 2.20848 13.6747 2.42645 13.2669 2.45461 13.2005 2.48473 13.1387 2.5158 13.0808 2.54349 13.0165 2.573 12.9566 2.60346 12.9 2.63162 12.8346 2.66121 12.7735 2.69234 12.7159 2.71983 12.6521 2.74866 12.5924 2.77947 12.5361 2.80776 12.4705 2.83714 12.409 2.86821 12.3515 2.89603 12.2875 2.92534 12.2278 2.95614 12.1712 2.98369 12.1057 3.01382 12.0446 3.04475 11.9872 3.07224 11.923 3.10189 11.8631 3.13187 11.8065 3.16017 11.7411 3.19002 11.6802 3.22096 11.6228 3.24864 11.5586 3.27795 11.4986 3.30821 11.4421 3.33624 11.3772 3.36589 11.3169 3.39648 11.2598 3.42431 11.1944 3.45429 11.1335 3.48543 11.076 3.51292 11.0117 3.54236 10.9517 3.57269 10.8953 3.60085 10.8297 3.6303 10.7684 3.66177 10.7112 3.68926 10.6471 3.71857 10.5874 3.74842 10.5313 3.77705 10.4656 3.80704 10.4042 3.83798 10.3467 3.8658 10.2823 3.89497 10.2227 3.92523 10.1662 3.95339 10.1009 3.98291 10.0399 4.01418 9.98236 4.04214 9.9182 4.07111 9.85828 4.10178 9.8017 4.1296 9.73688 4.15938 9.67651 4.18971 9.61946 4.2174 9.55419 4.24786 9.49316 4.27859 9.43579 4.3058 9.37143 4.33579 9.31152 4.36557 9.25493 4.39407 9.18933 4.42372 9.12837 4.45445 9.07081 4.48248 9.00677 4.51145 8.94705 4.54191 8.89093 4.57007 8.82519 4.60006 8.76404 4.6312 8.70634 4.65855 8.64231 4.688 8.58291 4.71846 8.52633 4.74662 8.46086 4.7764 8.39937 4.8074 8.34168 4.83523 8.27738 4.8642 8.2176 4.89466 8.16134 4.92282 8.09607 4.95281 8.03504 4.98374 7.97754 5.01109 7.91318 5.04074 7.85359 5.07087 7.79687 5.09882 7.73219 5.12847 7.67168 5.15914 7.61464 5.1873 7.5493 5.21695 7.48834 5.24768 7.43064 5.2757 7.36648 5.30501 7.30689 5.33534 7.25011 5.36364 7.18451 5.39362 7.12368 5.42436 7.06598 5.45157 7.00195 5.48088 6.94256 5.51148 6.8861 5.53964 6.8205 5.56949 6.75889 5.60009 6.70132 5.62825 6.63716 5.65722 6.57757 5.68802 6.52098 5.71584 6.45571 5.74597 6.39468 5.77697 6.33718 5.80432 6.27302 5.83397 6.21323 5.86409 6.15652 5.89191 6.0917 5.92156 6.03133 5.95202 5.97428 5.98018 5.90901 6.00997 5.84798 6.0409 5.79042 6.06906 5.72612 6.0979 5.66634 6.1285 5.60975 6.15666 5.54448 6.18631 5.48332 6.21745 5.42595 6.24513 5.36159 6.27478 5.30174 6.3047 5.24529 6.33286 5.17982 6.36271 5.11866 6.39365 5.06096 6.42147 4.99713 6.45078 4.93773 6.48057 4.88128 6.50873 4.81568 6.53919 4.75419 6.57019 4.69663 6.59781 4.63246 6.62712 4.57288 6.65711 4.51629 6.68547 4.45089 6.71505 4.38986 6.74586 4.33236 6.77469 4.26623 6.80515 4.20462 6.83595 4.14679 6.89783 4.0037 6.96741 3.8787 7.03781 3.77403 7.48012 3.1124 8.14283 2.8415 8.47852 2.74225 10.1542 2.01704 10.9352 0.828444 10.9425 0.816422 11.1914 0.419678 11.6347 0.18452 12.1048 0.18452 12.18 0.18452 12.2558 0.190335 12.3321 0.203011 12.8813 0.292788 13.3183 0.697568 13.4337 1.22375 13.4883 1.47067 13.6428 2.1732 14.3951 9.72375 16.9074 7.67247 19.2337 6.16344 21.3334 5.22614 21.5145 5.14538 21.7091 5.10526 21.9041 5.10526 22.0879 5.10526 22.2707 5.14094 22.443 5.21288 22.7983 5.36081 23.0711 5.64804 23.1933 6.00205 23.5305 6.97843 24.5793 10.2978 23.9228 12.0273" fill="#262626" fill-rule="evenodd" transform="matrix(1 0 0 -1 3297 1473)"/><path d="M0.0299189 2.52089 0.266169 0.106028 1.11663 1.01658C1.11663 1.01658 1.30532 2.56074 4.04577 2.71887L4.04577 2.71887 6.03018 2.40224C6.03018 2.40224 5.27439 3.70864 3.1011 4.10437L3.1011 4.10437C3.1011 4.10437 3.06575 4.10621 3.0023 4.10621L3.0023 4.10621C2.54757 4.10621 0.651948 4.01475 0.0299189 2.52089" fill="url(#fill0)" fill-rule="evenodd" transform="matrix(1 0 0 -1 3299 1441)"/><path d="M2.63551 19.0193C2.99718 16.725 0.0642888 4.15314 0.0642888 4.15314L0.0642888 4.15314C-0.176547 2.86269 0.787621 2.62372 0.787621 2.62372L0.787621 2.62372C2.55496 1.71537 3.35873 0.137826 3.35873 0.137826L3.35873 0.137826C3.63985 1.71537 4.96563 19.3538 4.96563 19.3538L4.96563 19.3538C5.56774 24.2295 1.4299 25.138 1.4299 25.138L1.4299 25.138C2.55496 23.7041 2.63551 19.0193 2.63551 19.0193" fill="url(#fill1)" fill-rule="evenodd" transform="matrix(1 0 0 -1 3301 1462)"/><path d="M0.52045 12.9722C0.52045 12.9722 8.25898 3.35615 15.1951 0.135153L15.1951 0.135153C15.1951 0.135153 16.4217 3.83009 15.9028 5.25121L15.9028 5.25121C15.9028 5.25121 2.87997 13.5877 0.142956 18.1354L0.142956 18.1354C0.142956 18.1354-0.281846 14.1092 0.52045 12.9722" fill="url(#fill2)" fill-rule="evenodd" transform="matrix(1 0 0 -1 3299 1457)"/></g></svg>